<svg xmlns="http://www.w3.org/2000/svg" width="24" height="24" viewBox="0 0 24 24" fill="none">
  <path d="M8.02819 11C7.83041 11 7.63707 11.0586 7.47262 11.1685C7.30817 11.2784 7.17999 11.4346 7.10431 11.6173C7.02862 11.8 7.00882 12.0011 7.0474 12.1951C7.08599 12.3891 7.18123 12.5673 7.32108 12.7071C7.46093 12.847 7.63911 12.9422 7.8331 12.9808C8.02708 13.0194 8.22814 12.9996 8.41087 12.9239C8.5936 12.8482 8.74977 12.72 8.85966 12.5556C8.96954 12.3911 9.02819 12.1978 9.02819 12C9.02819 11.7348 8.92283 11.4804 8.73529 11.2929C8.54776 11.1054 8.2934 11 8.02819 11ZM12.0282 11C11.8304 11 11.6371 11.0586 11.4726 11.1685C11.3082 11.2784 11.18 11.4346 11.1043 11.6173C11.0286 11.8 11.0088 12.0011 11.0474 12.1951C11.086 12.3891 11.1812 12.5673 11.3211 12.7071C11.4609 12.847 11.6391 12.9422 11.8331 12.9808C12.0271 13.0194 12.2281 12.9996 12.4109 12.9239C12.5936 12.8482 12.7498 12.72 12.8597 12.5556C12.9695 12.3911 13.0282 12.1978 13.0282 12C13.0282 11.7348 12.9228 11.4804 12.7353 11.2929C12.5478 11.1054 12.2934 11 12.0282 11ZM16.0282 11C15.8304 11 15.6371 11.0586 15.4726 11.1685C15.3082 11.2784 15.18 11.4346 15.1043 11.6173C15.0286 11.8 15.0088 12.0011 15.0474 12.1951C15.086 12.3891 15.1812 12.5673 15.3211 12.7071C15.4609 12.847 15.6391 12.9422 15.8331 12.9808C16.0271 13.0194 16.2281 12.9996 16.4109 12.9239C16.5936 12.8482 16.7498 12.72 16.8597 12.5556C16.9695 12.3911 17.0282 12.1978 17.0282 12C17.0282 11.7348 16.9228 11.4804 16.7353 11.2929C16.5478 11.1054 16.2934 11 16.0282 11ZM12.0282 2C10.715 2 9.41461 2.25866 8.20135 2.7612C6.9881 3.26375 5.8857 4.00035 4.95712 4.92893C3.08175 6.8043 2.02819 9.34784 2.02819 12C2.01944 14.3091 2.81898 16.5485 4.28819 18.33L2.28819 20.33C2.14943 20.4706 2.05543 20.6492 2.01806 20.8432C1.98068 21.0372 2.00161 21.2379 2.07819 21.42C2.16124 21.5999 2.29589 21.7511 2.46503 21.8544C2.63418 21.9577 2.83019 22.0083 3.02819 22H12.0282C14.6804 22 17.2239 20.9464 19.0993 19.0711C20.9746 17.1957 22.0282 14.6522 22.0282 12C22.0282 9.34784 20.9746 6.8043 19.0993 4.92893C17.2239 3.05357 14.6804 2 12.0282 2ZM12.0282 20H5.43819L6.36819 19.07C6.46267 18.9774 6.53784 18.8669 6.58934 18.7451C6.64084 18.6232 6.66764 18.4923 6.66819 18.36C6.66443 18.0962 6.5566 17.8446 6.36819 17.66C5.05877 16.352 4.24336 14.6305 4.06088 12.7888C3.87839 10.947 4.34013 9.09901 5.36741 7.55952C6.3947 6.02004 7.92398 4.88436 9.6947 4.34597C11.4654 3.80759 13.368 3.8998 15.0784 4.60691C16.7888 5.31402 18.201 6.59227 19.0746 8.22389C19.9482 9.85551 20.2291 11.7395 19.8693 13.555C19.5096 15.3705 18.5315 17.005 17.1017 18.1802C15.672 19.3554 13.8789 19.9985 12.0282 20Z" />
</svg>