<svg xmlns="http://www.w3.org/2000/svg" width="51" height="17" viewBox="0 0 51 17" fill="none">
  <path d="M22.1515 16.1044H18.073L20.624 0.331177H24.7022L22.1515 16.1044Z" fill="white"/>
  <path d="M36.9362 0.71645C36.1317 0.397301 34.8558 0.0449219 33.2781 0.0449219C29.2505 0.0449219 26.4143 2.19265 26.3969 5.26326C26.3634 7.52874 28.4275 8.78705 29.9713 9.54244C31.5492 10.3143 32.0856 10.8181 32.0856 11.5062C32.0695 12.5629 30.8106 13.0499 29.6363 13.0499C28.008 13.0499 27.1356 12.7988 25.8097 12.2109L25.2726 11.9589L24.7019 15.4997C25.6585 15.9354 27.4208 16.3222 29.2505 16.3391C33.5299 16.3391 36.3159 14.2246 36.3489 10.9524C36.3652 9.15683 35.2753 7.78099 32.9255 6.65672C31.499 5.93501 30.6254 5.44837 30.6254 4.70993C30.6422 4.03863 31.3643 3.35104 32.9746 3.35104C34.3004 3.31737 35.2746 3.63607 36.0126 3.95499L36.3815 4.12249L36.9362 0.71645Z" fill="white"/>
  <path d="M42.3564 10.5165C42.6923 9.61035 43.9847 6.10328 43.9847 6.10328C43.9678 6.13696 44.3199 5.18041 44.5213 4.59318L44.8064 5.95229C44.8064 5.95229 45.5787 9.72788 45.7464 10.5165H42.3564ZM47.3908 0.331177H44.2361C43.2632 0.331177 42.5241 0.616202 42.1044 1.63989L36.0464 16.1042H40.3258C40.3258 16.1042 41.0303 14.1574 41.1818 13.7381H46.4182C46.5352 14.2919 46.9048 16.1042 46.9048 16.1042H50.6811L47.3908 0.331177Z" fill="white"/>
  <path d="M14.6663 0.331177L10.6721 11.087L10.2357 8.90559C9.49723 6.38853 7.18134 3.6538 4.59692 2.29402L8.25542 16.0877H12.5683L18.9789 0.331177H14.6663Z" fill="white"/>
  <path d="M6.96295 0.331177H0.401115L0.333984 0.649879C5.45263 1.95881 8.8426 5.11394 10.2354 8.90626L8.80893 1.65706C8.57408 0.649656 7.85238 0.364407 6.96295 0.331177Z" fill="white"/>
</svg>